<svg viewBox="0 0 1024 1024" style="width: 100%; height: 100%; fill: currentcolor; overflow: hidden; cursor: pointer;" data-spm-anchor-id="5176.28103460.0.i35.56336308QulD8R">
<path d="M149.333333 89.6h725.333334c39.808 0 59.733333 19.925333 59.733333 59.733333V768c0 45.952-16.213333 85.162667-48.725333 117.674667A160.341333 160.341333 0 0 1 768 934.4H256a160.341333 160.341333 0 0 1-117.674667-48.725333A160.341333 160.341333 0 0 1 89.6 768V149.333333c0-39.808 19.925333-59.733333 59.733333-59.733333z m273.066667 768H768c24.746667 0 45.866667-8.746667 63.36-26.24 17.493333-17.493333 26.24-38.613333 26.24-63.36V166.4H422.4v691.2zM345.6 166.4H166.4V768c0 59.733333 29.866667 89.6 89.6 89.6h89.6V166.4z m387.157333 345.6c0 13.184-4.693333 24.405333-13.952 33.706667l-114.133333 114.133333-54.314667-54.314667L643.882667 512 550.4 418.474667l54.314667-54.314667 114.133333 114.133333c9.301333 9.301333 13.952 20.522667 13.952 33.706667z"></path>
</svg>