<svg viewBox="0 0 1024 1024" data-spm-anchor-id="5176.28103460.0.i4.74936308ZH0HjM" style="width: 100%; height: 100%; fill: currentcolor; overflow: hidden; cursor: pointer;"><path d="M789.333333 827.733333h-224.298666l-240.597334 140.373334a40.021333 40.021333 0 0 1-42.752 0.128 40.021333 40.021333 0 0 1-21.418666-36.992V827.733333h-25.6a160.341333 160.341333 0 0 1-117.674667-48.725333A160.341333 160.341333 0 0 1 68.266667 661.333333v-512c0-39.808 19.925333-59.733333 59.733333-59.733333h768c39.808 0 59.733333 19.925333 59.733333 59.733333v512c0 45.952-16.213333 85.162667-48.725333 117.674667A160.341333 160.341333 0 0 1 789.333333 827.733333zM145.066667 166.4v494.933333c0 59.733333 29.866667 89.6 89.6 89.6h102.4v120.874667l207.232-120.874667H789.333333c24.746667 0 45.866667-8.746667 63.36-26.24 17.493333-17.493333 26.24-38.613333 26.24-63.36V166.4H145.066667zM473.6 640v-132.266667H341.333333v-76.8h132.266667V298.666667h76.8v132.266666H682.666667v76.8h-132.266667V640h-76.8z"></path></svg>