<svg xmlns="http://www.w3.org/2000/svg" xmlns:xlink="http://www.w3.org/1999/xlink" fill="none" version="1.1" width="44" height="44" viewBox="0 0 44 44"><defs><clipPath id="master_svg0_45_55681"><rect x="0" y="0" width="44" height="44" rx="0"/></clipPath><filter id="master_svg1_45_55973" filterUnits="objectBoundingBox" color-interpolation-filters="sRGB" x="0" y="0" width="1" height="1"><feFlood flood-opacity="0" result="BackgroundImageFix"/><feBlend mode="normal" in="SourceGraphic" in2="BackgroundImageFix" result="shape"/><feColorMatrix in="SourceAlpha" type="matrix" result="hardAlpha" values="0 0 0 0 0 0 0 0 0 0 0 0 0 0 0 0 0 0 127 0"/><feOffset dy="-3.194399356842041" dx="0"/><feGaussianBlur stdDeviation="2.661998987197876"/><feComposite in2="hardAlpha" operator="arithmetic" k2="-1" k3="1"/><feColorMatrix type="matrix" values="0 0 0 0 0.41764116287231445 0 0 0 0 0.49106085300445557 0 0 0 0 0.601190447807312 0 0 0 0.30000001192092896 0"/><feBlend mode="normal" in2="shape" result="effect1_innerShadow"/></filter><radialGradient cx="0" cy="0" r="1" gradientUnits="userSpaceOnUse" id="master_svg2_45_73641" gradientTransform="translate(22.219867706298828 1.861328125) rotate(66.80198163812376) scale(58.79757640641182 68.69052820293614)"><stop offset="0.046437937999144197%" stop-color="#F2FCFF" stop-opacity="1"/><stop offset="29.310792684555054%" stop-color="#DEE7F4" stop-opacity="1"/><stop offset="66.60494804382324%" stop-color="#CFDBF2" stop-opacity="1"/><stop offset="99.95083212852478%" stop-color="#ECEFFF" stop-opacity="1"/></radialGradient><radialGradient cx="0" cy="0" r="1" gradientUnits="userSpaceOnUse" id="master_svg3_45_73642" gradientTransform="translate(30.41113478000534 -9.246648178792384) rotate(105.30115203391453) scale(40.78555944987828 47.64790987811672)"><stop offset="0%" stop-color="#F6FCFF" stop-opacity="1"/><stop offset="100%" stop-color="#FFFFFF" stop-opacity="0"/></radialGradient><linearGradient x1="0.5" y1="0.059696655720472336" x2="0.5" y2="1" id="master_svg4_45_58584"><stop offset="0%" stop-color="#56606F" stop-opacity="1"/><stop offset="76.42857432365417%" stop-color="#4A4752" stop-opacity="1"/><stop offset="100%" stop-color="#515053" stop-opacity="1"/></linearGradient><linearGradient x1="0.5" y1="0.059696655720472336" x2="0.5" y2="1" id="master_svg5_45_58584"><stop offset="0%" stop-color="#56606F" stop-opacity="1"/><stop offset="76.42857432365417%" stop-color="#4A4752" stop-opacity="1"/><stop offset="100%" stop-color="#515053" stop-opacity="1"/></linearGradient><filter id="master_svg6_45_57750" filterUnits="objectBoundingBox" color-interpolation-filters="sRGB" x="-1.1428571649738948" y="-5.333333574160193" width="3.2857143299477896" height="11.666667148320386"><feFlood flood-opacity="0" result="BackgroundImageFix"/><feBlend mode="normal" in="SourceGraphic" in2="BackgroundImageFix" result="shape"/><feGaussianBlur stdDeviation="1.7599999904632568" result="effect1_foregroundBlur"/></filter><filter id="master_svg7_45_57954" filterUnits="objectBoundingBox" color-interpolation-filters="sRGB" x="-1.1428571649738948" y="-5.333333574160193" width="3.2857143299477896" height="11.666667148320386"><feFlood flood-opacity="0" result="BackgroundImageFix"/><feBlend mode="normal" in="SourceGraphic" in2="BackgroundImageFix" result="shape"/><feGaussianBlur stdDeviation="1.7599999904632568" result="effect1_foregroundBlur"/></filter></defs><g clip-path="url(#master_svg0_45_55681)"><g filter="url(#master_svg1_45_55973)"><path d="M1.5084257226562499,37.470328125C0.48854572265624996,39.126128125,1.6797857226562498,41.258928125,3.6245057226562496,41.258928125L6.84394572265625,41.258928125C8.64416572265625,41.258928125,10.35476572265625,40.473328125,11.52786572265625,39.107828125C13.17396572265625,37.191528125,16.01216572265625,36.852228125,18.06356572265625,38.326528125L19.55996572265625,39.401928125C21.16726572265625,40.556928125,23.31496572265625,40.619828125,24.98706572265625,39.560928125L27.72756572265625,37.825328125C29.57666572265625,36.654428125,32.02196572265625,37.170728125,33.23986572265625,38.989228125C34.18976572265625,40.407628125,35.78446572265625,41.258928125,37.49156572265625,41.258928125L41.28146572265625,41.258928125C43.05306572265625,41.258928125,44.16106572265625,39.342228125,43.27696572265625,37.807028125L41.69016572265625,35.051628125C39.87756572265625,31.903928125,38.75726572265625,28.405728125,38.40416572265625,24.790528125L37.50256572265625,15.558828125C36.74356572265625,7.787598125,30.21026572265625,1.861328125,22.40206572265625,1.861328125C14.56406572265625,1.861328125,8.01618572265625,7.831428125,7.2941757226562505,15.636028125L6.47021572265625,24.542828125C6.12136572265625,28.313828125,4.90657572265625,31.953328125,2.92048572265625,35.177828125L1.5084257226562499,37.470328125Z" fill="url(#master_svg2_45_73641)" fill-opacity="1"/><path d="M1.5084257226562499,37.470328125C0.48854572265624996,39.126128125,1.6797857226562498,41.258928125,3.6245057226562496,41.258928125L6.84394572265625,41.258928125C8.64416572265625,41.258928125,10.35476572265625,40.473328125,11.52786572265625,39.107828125C13.17396572265625,37.191528125,16.01216572265625,36.852228125,18.06356572265625,38.326528125L19.55996572265625,39.401928125C21.16726572265625,40.556928125,23.31496572265625,40.619828125,24.98706572265625,39.560928125L27.72756572265625,37.825328125C29.57666572265625,36.654428125,32.02196572265625,37.170728125,33.23986572265625,38.989228125C34.18976572265625,40.407628125,35.78446572265625,41.258928125,37.49156572265625,41.258928125L41.28146572265625,41.258928125C43.05306572265625,41.258928125,44.16106572265625,39.342228125,43.27696572265625,37.807028125L41.69016572265625,35.051628125C39.87756572265625,31.903928125,38.75726572265625,28.405728125,38.40416572265625,24.790528125L37.50256572265625,15.558828125C36.74356572265625,7.787598125,30.21026572265625,1.861328125,22.40206572265625,1.861328125C14.56406572265625,1.861328125,8.01618572265625,7.831428125,7.2941757226562505,15.636028125L6.47021572265625,24.542828125C6.12136572265625,28.313828125,4.90657572265625,31.953328125,2.92048572265625,35.177828125L1.5084257226562499,37.470328125Z" fill="url(#master_svg3_45_73642)" fill-opacity="0.5"/><path d="M0.8158857226562499,38.759828125Q0.81358572265625,39.492728125,1.1758557226562498,40.141328125Q1.5381057226562498,40.789928125,2.16334572265625,41.172328125Q2.82723572265625,41.578428125,3.6245057226562496,41.578428125L6.84394572265625,41.578428125Q8.26396572265625,41.578428125,9.55436572265625,40.985728125Q10.84486572265625,40.393028125,11.77016572265625,39.315928125Q12.92376572265625,37.973028125,14.68166572265625,37.762928125Q16.43946572265625,37.552828125,17.87716572265625,38.585928125L19.37356572265625,39.661328125Q20.65836572265625,40.584628125,22.23986572265625,40.630928125Q23.82136572265625,40.677228125,25.15796572265625,39.830728125L27.89856572265625,38.095228125Q29.17556572265625,37.286528125,30.65446572265625,37.598728125Q32.13336572265625,37.911028125,32.97436572265625,39.166928125Q33.73136572265625,40.297128125,34.93136572265625,40.937828125Q36.13126572265625,41.578428125,37.49156572265625,41.578428125L41.28146572265625,41.578428125Q42.79446572265625,41.578428125,43.55166572265625,40.268528125Q44.30886572265625,38.958728125,43.55376572265625,37.647628125L41.96706572265625,34.892228125Q39.25116572265625,30.176028125,38.72206572265625,24.759528125L37.82046572265625,15.527828125Q37.53436572265625,12.599028125,36.20546572265625,9.994918125Q34.91696572265625,7.470188125,32.81036572265625,5.559268125Q30.70376572265625,3.648368125,28.06566572265625,2.611435125Q25.34466572265625,1.541888125,22.40206572265625,1.541888125Q19.44846572265625,1.541888125,16.71906572265625,2.618962125Q14.07346572265625,3.662978125,11.96436572265625,5.585898125Q9.85536572265625,7.508828125,8.57208572265625,10.047048125Q7.248175722656249,12.665628125,6.97610572265625,15.606628125L6.15213572265625,24.513428125Q5.62866572265625,30.171828125,2.64850572265625,35.010228125L1.2364457226562502,37.302828125Q0.8183257226562499,37.981628125,0.8158857226562499,38.759828125ZM3.6245057226562496,41.258928125C1.6797857226562498,41.258928125,0.48854572265624996,39.126128125,1.5084257226562499,37.470328125L2.92048572265625,35.177828125C4.90657572265625,31.953328125,6.12136572265625,28.313828125,6.47021572265625,24.542828125L7.2941757226562505,15.636028125C8.01618572265625,7.831428125,14.56406572265625,1.861328125,22.40206572265625,1.861328125C30.21026572265625,1.861328125,36.74356572265625,7.787598125,37.50256572265625,15.558828125L38.40416572265625,24.790528125C38.75726572265625,28.405728125,39.87756572265625,31.903928125,41.69016572265625,35.051628125L43.27696572265625,37.807028125C44.16106572265625,39.342228125,43.05306572265625,41.258928125,41.28146572265625,41.258928125L37.49156572265625,41.258928125C35.78446572265625,41.258928125,34.18976572265625,40.407628125,33.23986572265625,38.989228125C32.02196572265625,37.170728125,29.57666572265625,36.654428125,27.72756572265625,37.825328125L24.98706572265625,39.560928125C23.31496572265625,40.619828125,21.16726572265625,40.556928125,19.55996572265625,39.401928125L18.06356572265625,38.326528125C16.01216572265625,36.852228125,13.17396572265625,37.191528125,11.52786572265625,39.107828125C10.35476572265625,40.473328125,8.64416572265625,41.258928125,6.84394572265625,41.258928125L3.6245057226562496,41.258928125Z" fill-rule="evenodd" fill="#D9E0F3" fill-opacity="1"/></g><g><path d="M18.9198388671875,16.720078125C18.9198388671875,18.178098124999998,18.0332288671875,19.360078125,16.9395688671875,19.360078125C15.8464458671875,19.360078125,14.9598388671875,18.178098124999998,14.9598388671875,16.720078125C14.9598388671875,15.262058125,15.8464458671875,14.080078125,16.9395688671875,14.080078125C18.0332288671875,14.080078125,18.9198388671875,15.262058125,18.9198388671875,16.720078125L18.9198388671875,16.720078125Z" fill-rule="evenodd" fill="url(#master_svg4_45_58584)" fill-opacity="1"/></g><g><path d="M30.80002685546875,16.720078125C30.80002685546875,18.178098124999998,29.91341685546875,19.360078125,28.81975685546875,19.360078125C27.72663385546875,19.360078125,26.84002685546875,18.178098124999998,26.84002685546875,16.720078125C26.84002685546875,15.262058125,27.72663385546875,14.080078125,28.81975685546875,14.080078125C29.91341685546875,14.080078125,30.80002685546875,15.262058125,30.80002685546875,16.720078125L30.80002685546875,16.720078125Z" fill-rule="evenodd" fill="url(#master_svg5_45_58584)" fill-opacity="1"/></g><g filter="url(#master_svg6_45_57750)"><ellipse cx="14.079999923706055" cy="21.7801171541214" rx="3.0799999237060547" ry="0.6599999666213989" fill="#9EB8E5" fill-opacity="1"/></g><g filter="url(#master_svg7_45_57954)"><ellipse cx="32.559919357299805" cy="21.7801171541214" rx="3.0799999237060547" ry="0.6599999666213989" fill="#9EB8E5" fill-opacity="1"/></g></g></svg>