<?xml version="1.0" standalone="no"?><!DOCTYPE svg PUBLIC "-//W3C//DTD SVG 1.1//EN" "http://www.w3.org/Graphics/SVG/1.1/DTD/svg11.dtd"><svg t="1764042397208" class="icon" viewBox="0 0 1024 1024" version="1.1" xmlns="http://www.w3.org/2000/svg" p-id="7130" width="48" height="48" xmlns:xlink="http://www.w3.org/1999/xlink"><path d="M172.1856 425.6768l-56.064-0.256-0.256 158.976 56.32 0.256V425.6768zM482.4064 813.312l190.976 0.256v-56.064l-190.72-0.256-0.256 56.064zM172.1856 237.2608a17.92 17.92 0 0 1 17.92-17.92h112.9472v-56.32l-113.2032-0.256a74.1888 74.1888 0 0 0-74.1888 74.24v121.856h56.32zM512 163.2768l-141.2608-0.256-0.256 56.064 141.5168 0.256V163.2768zM851.8144 739.328a17.8688 17.8688 0 0 1-17.92 17.92h-102.4l-0.256 56.064 102.7072 0.256a73.6256 73.6256 0 0 0 57.7536-27.648 74.6496 74.6496 0 0 0 16.2304-46.3872v-86.6816l-56.32-0.256zM851.8144 586.2912l56.32 0.256V427.5712l-56.064-0.256-0.256 158.976zM833.8944 163.0208h-59.8016l-0.256 56.32 60.0576 0.256a17.92 17.92 0 0 1 17.92 17.92v123.4944h56.32V237.2608a74.3936 74.3936 0 0 0-74.24-74.24zM575.9488 219.0848l140.1856 0.256V163.2768l-139.9808-0.256-0.2048 56.064zM377.5488 757.248H258.7136l-86.528 78.336v-184.832h-56.32v236.5952a33.3824 33.3824 0 0 0 19.7632 30.4128 33.8432 33.8432 0 0 0 13.5168 2.816 33.28 33.28 0 0 0 22.3232-8.5504l108.9536-98.4576h144.2816V757.76h-47.0016z" p-id="7131"></path></svg>